<!-- cute-pink-heart.svg -->
<svg width="24" height="24" viewBox="0 0 24 24" fill="none" xmlns="http://www.w3.org/2000/svg" aria-hidden="true">
  <!-- coração -->
  <path d="M12 21s-6.6-4.02-9.22-7.02C1.2 12.21 1 10.2 2.2 8.76c1.36-1.65 3.9-1.98 5.64-.74C8.7 8.6 9.4 9.6 12 12c2.6-2.4 3.3-3.4 4.16-3.98 1.74-1.24 4.28-.91 5.64.74 1.2 1.44 1 3.45-.58 5.22C18.6 16.98 12 21 12 21z" fill="#FF71B8"></path>
  <!-- brilho fofinho -->
  <path d="M8.6 9.1c-.9-.9-2.3-.9-3.1 0-.3.3-.4.7-.3 1.1.1.3.4.6.8.8 1 .5 2.4.2 3.1-.7.4-.5.3-1-.5-1.2z" fill="white" opacity=".6"></path>
</svg>
